<svg id="Capa_1" data-name="Capa 1" xmlns="http://www.w3.org/2000/svg" viewBox="0 0 100 100"><defs><style>.cls-1{fill:#475758;}.cls-2,.cls-3{fill:#ebecee;}.cls-3{stroke:#aaf70f;stroke-miterlimit:10;}</style></defs><title>iEnergybook-nota</title><circle class="cls-1" cx="50.11" cy="50.25" r="49.89"/><path class="cls-2" d="M72.24,23.43H38.29a7.67,7.67,0,0,0-7.65,7.65v31a7.65,7.65,0,0,0,.86,15.25H59.16a7.65,7.65,0,0,0,7.64-7.65v-31h5.44a7.65,7.65,0,1,0,0-15.3ZM53.74,75.08H31.5a5.39,5.39,0,1,1,0-10.78H53.74A7.62,7.62,0,0,0,53.74,75.08Zm10.81-44V69.69a5.39,5.39,0,1,1-5.38-5.38h0a1.14,1.14,0,0,0,0-2.27H33v-31a5.39,5.39,0,0,1,5.34-5.38H66.77a7.65,7.65,0,0,0-2.22,5.38Zm6.55,5.4H66.82V34.61H71.1Zm2.27-.12V33.48a1.14,1.14,0,0,0-1.13-1.13H66.82V31.08a5.39,5.39,0,1,1,6.55,5.28Z"/><path class="cls-3" d="M40.28,36.92H56.84a1.13,1.13,0,0,0,0-2.26H40.28a1.13,1.13,0,0,0,0,2.26Z"/><path class="cls-3" d="M40.28,45H56.84a1.13,1.13,0,1,0,0-2.26H40.28a1.13,1.13,0,0,0,0,2.26Z"/><path class="cls-3" d="M40.28,53.08H56.84a1.13,1.13,0,0,0,0-2.26H40.28a1.13,1.13,0,0,0,0,2.26Z"/></svg>