<svg id="Capa_1" data-name="Capa 1" xmlns="http://www.w3.org/2000/svg" viewBox="0 0 100 100"><defs><style>.cls-1{fill:#475758;}.cls-2{fill:#303c3c;}.cls-3{fill:#ebecee;stroke:#aaf70f;stroke-miterlimit:10;}</style></defs><title>iEnergybook-costos</title><circle class="cls-1" cx="50.11" cy="50.25" r="49.89"/><path class="cls-2" d="M72.42,60.26a14.72,14.72,0,0,1-2.34,8.17,15.56,15.56,0,0,1-6.86,5.68,25.74,25.74,0,0,1-10.69,2q-7.43,0-12.24-2.81A16.26,16.26,0,0,1,34.73,68a12.24,12.24,0,0,1-2.13-6.54A4.42,4.42,0,0,1,37.14,57a3.86,3.86,0,0,1,2.72,1A8.19,8.19,0,0,1,41.76,61a20.48,20.48,0,0,0,2.07,4A8.26,8.26,0,0,0,47,67.66a11.54,11.54,0,0,0,5.3,1,11.89,11.89,0,0,0,7.33-2.11,6.32,6.32,0,0,0,2.82-5.24,5.5,5.5,0,0,0-1.52-4A9.76,9.76,0,0,0,57,54.93a64.62,64.62,0,0,0-6.44-1.74,47,47,0,0,1-9-3,14.63,14.63,0,0,1-5.78-4.61,12,12,0,0,1-2.13-7.27A12.53,12.53,0,0,1,35.81,31a14.24,14.24,0,0,1,6.53-4.93,26.56,26.56,0,0,1,10-1.73,24.92,24.92,0,0,1,8,1.14A16.84,16.84,0,0,1,66,28.53a12.77,12.77,0,0,1,3.25,4,9.2,9.2,0,0,1,1,4.07A4.83,4.83,0,0,1,69,39.84a4.08,4.08,0,0,1-3.2,1.45,3.65,3.65,0,0,1-2.64-.87,11.64,11.64,0,0,1-2-2.85,13,13,0,0,0-3.28-4.43q-1.92-1.59-6.15-1.59a10.65,10.65,0,0,0-6.34,1.73A5,5,0,0,0,43,37.43a4.2,4.2,0,0,0,.82,2.6A6.84,6.84,0,0,0,46,41.91a15.85,15.85,0,0,0,2.91,1.23q1.47.45,4.85,1.3a74.87,74.87,0,0,1,7.67,2.19,23.14,23.14,0,0,1,5.85,2.9,11.94,11.94,0,0,1,3.76,4.32A13.87,13.87,0,0,1,72.42,60.26Z"/><path class="cls-2" d="M52.3,83.68A3.34,3.34,0,0,1,49,80.14V20.35a3.3,3.3,0,1,1,6.59,0V80.14A3.34,3.34,0,0,1,52.3,83.68Z"/><path class="cls-3" d="M70.13,60.26a14.72,14.72,0,0,1-2.34,8.17,15.58,15.58,0,0,1-6.85,5.68,25.82,25.82,0,0,1-10.7,2q-7.43,0-12.24-2.81A16.14,16.14,0,0,1,32.45,68a12.17,12.17,0,0,1-2.14-6.54A4.42,4.42,0,0,1,34.86,57a3.85,3.85,0,0,1,2.71,1A8.07,8.07,0,0,1,39.47,61a20.48,20.48,0,0,0,2.07,4,8.22,8.22,0,0,0,3.13,2.65,11.46,11.46,0,0,0,5.29,1A11.92,11.92,0,0,0,57.3,66.6a6.32,6.32,0,0,0,2.82-5.24,5.51,5.51,0,0,0-1.53-4,9.76,9.76,0,0,0-3.93-2.38,64.62,64.62,0,0,0-6.44-1.74,47,47,0,0,1-9-3,14.63,14.63,0,0,1-5.78-4.61,12,12,0,0,1-2.13-7.27A12.53,12.53,0,0,1,33.52,31a14.24,14.24,0,0,1,6.53-4.93A26.56,26.56,0,0,1,50.1,24.34a24.92,24.92,0,0,1,8,1.14,16.84,16.84,0,0,1,5.59,3.05,12.77,12.77,0,0,1,3.25,4,9.2,9.2,0,0,1,1,4.07,4.79,4.79,0,0,1-1.28,3.26,4.07,4.07,0,0,1-3.19,1.45,3.66,3.66,0,0,1-2.65-.87,11.64,11.64,0,0,1-2-2.85,12.9,12.9,0,0,0-3.28-4.43q-1.92-1.59-6.15-1.59a10.65,10.65,0,0,0-6.34,1.73,5,5,0,0,0-2.41,4.15,4.2,4.2,0,0,0,.82,2.6,7,7,0,0,0,2.25,1.88,15.85,15.85,0,0,0,2.91,1.23q1.47.45,4.85,1.3a75.1,75.1,0,0,1,7.68,2.19A23.06,23.06,0,0,1,65,49.53a11.94,11.94,0,0,1,3.76,4.32A13.87,13.87,0,0,1,70.13,60.26Z"/><path class="cls-3" d="M49.47,83.68a3.74,3.74,0,0,1-3.77-3.54V20.35a3.78,3.78,0,0,1,7.54,0V80.14A3.74,3.74,0,0,1,49.47,83.68Z"/></svg>